<svg xmlns="http://www.w3.org/2000/svg" viewBox="0 0 89.57 81.66"><defs><style>.cls-1{fill:#fff;}</style></defs><title>chain</title><g id="Layer_2" data-name="Layer 2"><g id="Layer_1-2" data-name="Layer 1"><path class="cls-1" d="M28.54,7.75a5,5,0,1,0,5,5A5,5,0,0,0,28.54,7.75Zm0,7.5a2.5,2.5,0,1,1,2.5-2.5A2.5,2.5,0,0,1,28.54,15.25Z"/><path class="cls-1" d="M61,17.75a5,5,0,1,0-5-5A5,5,0,0,0,61,17.75Zm0-7.5a2.5,2.5,0,1,1-2.5,2.5A2.51,2.51,0,0,1,61,10.25Z"/><path class="cls-1" d="M84.35,30.61a12.52,12.52,0,0,0-5.95-2.26,13,13,0,0,1-3.16-3.54l-1.43-2.39a12.93,12.93,0,0,1-1.61-4.35A12.47,12.47,0,0,0,62.09,0a12.39,12.39,0,0,0-8.54,2.45,12.86,12.86,0,0,1-7.48,2.74l-3,0a12.91,12.91,0,0,1-7.4-2.5A12.49,12.49,0,0,0,17.3,18.46a13.22,13.22,0,0,1-1.54,4l-1.43,2.39a12.93,12.93,0,0,1-3.16,3.54A12.49,12.49,0,0,0,7.23,52.1a12.91,12.91,0,0,1,5.95,5.3l1.36,2.44a12.83,12.83,0,0,1,1.37,7.85,12.48,12.48,0,0,0,12.46,14,12.12,12.12,0,0,0,4.76-1,12.58,12.58,0,0,0,5.26-4.15A14.66,14.66,0,0,1,44,75.3l2,0a14.51,14.51,0,0,1,4.94.91,12.58,12.58,0,0,0,5.51,4.52,12.13,12.13,0,0,0,4.77,1,12.48,12.48,0,0,0,12.45-14A12.83,12.83,0,0,1,75,59.84l1.36-2.44a12.85,12.85,0,0,1,6-5.3,12.49,12.49,0,0,0,2-21.49ZM46,72.77l-2.05,0a16.76,16.76,0,0,0-3.84.53l0-.09A12.48,12.48,0,0,0,40.08,65a14.86,14.86,0,0,0,3,.32l3,0a15.46,15.46,0,0,0,3.43-.46,12.43,12.43,0,0,0-.15,8.34A16.59,16.59,0,0,0,46,72.77ZM64.63,42a14.45,14.45,0,0,1-1.58,8.54l-.88,1.59A14.52,14.52,0,0,1,55.74,58a12.33,12.33,0,0,0-4.4,3.6,13.15,13.15,0,0,1-5.25,1.22l-3,0A13.19,13.19,0,0,1,38.52,62a12.49,12.49,0,0,0-4.68-4,14.52,14.52,0,0,1-6.43-5.84l-.89-1.59A14.53,14.53,0,0,1,24.94,42a12.34,12.34,0,0,0-1.31-6.88,14.22,14.22,0,0,1,1.68-4.29l.93-1.56a14.51,14.51,0,0,1,3.35-3.8,12.41,12.41,0,0,0,6.22-2.29A14.5,14.5,0,0,1,44,20.26l2,0a14.61,14.61,0,0,1,8.08,2.65,12.43,12.43,0,0,0,5.14,2,14.72,14.72,0,0,1,4.11,4.38l.93,1.56a14.22,14.22,0,0,1,1.68,4.29A12.42,12.42,0,0,0,64.63,42Zm3.13-9.54a16.41,16.41,0,0,0-1.35-2.91L65.48,28A16.78,16.78,0,0,0,63,24.82a12.45,12.45,0,0,0,7.32-4,14.7,14.7,0,0,0,1.31,2.88l1.44,2.4a15,15,0,0,0,1.78,2.37A12.61,12.61,0,0,0,67.76,32.44ZM56.55,6.49A7.41,7.41,0,0,1,61.68,5a7.58,7.58,0,0,1,6.79,6.49A7.49,7.49,0,0,1,61.15,20H61a7.41,7.41,0,0,1-4.16-1.27A19.57,19.57,0,0,0,46,15.23l-2.09,0a19.52,19.52,0,0,0-11,3.84,7.49,7.49,0,0,1-4.24,1.4h-.12a7.5,7.5,0,0,1-7.46-8.25,7.59,7.59,0,0,1,6.59-6.7,6.58,6.58,0,0,1,.88,0,7.47,7.47,0,0,1,4.29,1.35A17.85,17.85,0,0,0,43.1,10.27l3,0A17.82,17.82,0,0,0,56.55,6.49ZM19.29,21.41a12.52,12.52,0,0,0,6.86,3.85,15.7,15.7,0,0,0-2,2.71l-.94,1.56a16.41,16.41,0,0,0-1.35,2.91,12.59,12.59,0,0,0-7.11-4,14.68,14.68,0,0,0,1.78-2.37l1.43-2.4a14.51,14.51,0,0,0,1.19-2.52C19.17,21.25,19.22,21.33,19.29,21.41Zm-10,26.15a7.42,7.42,0,0,1-3.72-3.82,7.51,7.51,0,0,1,13.45-6.62,7.4,7.4,0,0,1,.9,4.37A19.58,19.58,0,0,0,22.15,53L23,54.55a19.5,19.5,0,0,0,8.6,7.89,7.43,7.43,0,0,1,3.23,3.07A7.51,7.51,0,0,1,31.19,76.1a7.31,7.31,0,0,1-2.82.56,7.48,7.48,0,0,1-7.49-8.37,17.92,17.92,0,0,0-2-10.89L17.55,55A17.87,17.87,0,0,0,9.33,47.56Zm61.34,9.85a17.74,17.74,0,0,0-2,10.88,7.49,7.49,0,0,1-7.49,8.37,7.33,7.33,0,0,1-2.83-.56,7.5,7.5,0,0,1-.44-13.66,19.56,19.56,0,0,0,8.6-7.89L67.42,53a19.51,19.51,0,0,0,2.19-11.47,7.41,7.41,0,0,1,.91-4.37A7.5,7.5,0,0,1,84,43.74a7.38,7.38,0,0,1-3.72,3.82A17.84,17.84,0,0,0,72,55Z"/><path class="cls-1" d="M74.79,45.23a5.08,5.08,0,0,0,2.49.67,5,5,0,0,0,2.51-9.34,5.11,5.11,0,0,0-2.5-.67,5,5,0,0,0-2.5,9.34Zm.33-5.58a2.5,2.5,0,1,1,4.33,2.5,2.56,2.56,0,0,1-3.41.91A2.49,2.49,0,0,1,75.12,39.65Z"/><path class="cls-1" d="M65.87,67.75a5,5,0,1,0-.5,3.79A5,5,0,0,0,65.87,67.75ZM63.2,70.29a2.56,2.56,0,0,1-3.41.92A2.5,2.5,0,0,1,61,66.54a2.55,2.55,0,0,1,1.25.34,2.5,2.5,0,0,1,.91,3.41Z"/><path class="cls-1" d="M16.62,38.4a5,5,0,1,0-4.33,7.5h0a5,5,0,0,0,4.33-7.5Zm-6.5,3.75a2.5,2.5,0,1,1,2.17,1.25A2.5,2.5,0,0,1,10.12,42.15Z"/><path class="cls-1" d="M26,64.71a5,5,0,0,0-1.83,6.83A5,5,0,0,0,28.54,74h0A5,5,0,1,0,26,64.71Zm1.25,2.17a2.5,2.5,0,0,1,2.5,4.33,2.51,2.51,0,0,1-3.67-2.82A2.46,2.46,0,0,1,27.29,66.88Z"/></g></g></svg>