<svg xmlns="http://www.w3.org/2000/svg" viewBox="0 0 732.12 448.28"><defs><style>.cls-1{fill:#fff;}</style></defs><title>handdle</title><g id="Layer_2" data-name="Layer 2"><g id="Layer_1-2" data-name="Layer 1"><path class="cls-1" d="M671.93,41.67H213.8A64.76,64.76,0,0,0,88.53,64.82v125A64.23,64.23,0,0,0,97.8,223s0,0,0,.05c-13.93,14.68-60.15,22.35-74,17.72S5.18,259.29.55,277.81s18.53,27.78,115.76,55.56,88,41.67,111.12,23.15,88-13.89,148.17,0S491.35,388.93,496,398.19s-9.26,32.41,23.15,46.31,46.3-13.9,46.3-27.79-37-55.56-60.19-60.19S408,324.11,343.19,301s-78.72-13.89-125-9.26-27.78-48.77-27.78-48.77v0a65.76,65.76,0,0,0,16.41-16.53h0v0A64.24,64.24,0,0,0,218.11,191a46.29,46.29,0,0,1,13.95-5.75c37-9.26,27.4-13.89,55.56-13.89,13.89,0,18.53,23.15,46.31,23.15s27.32-13.89,50.93-13.89c23.15,0,13.89,13.89,46.3,18.52s37-18.52,60.19-13.89c14.36,2.87,22.95,19.4,41.67,23.15,23.15,4.63,27.65-10,50.93-13.89,27.79-4.63,27.79,13.89,50.94,27.78s37,9.26,64.82,9.26,32.41-46.3,32.41-106.5S722.86,41.67,671.93,41.67Z"/></g></g></svg>