<svg xmlns="http://www.w3.org/2000/svg" viewBox="0 0 379.55 290.36"><defs><style>.cls-1{fill:none;stroke:#fff;stroke-miterlimit:10;stroke-width:9px;}.cls-2{fill:#fff;}</style></defs><title>saddle_1</title><g id="Layer_2" data-name="Layer 2"><g id="Layer_1-2" data-name="Layer 1"><path class="cls-1" d="M101.58,109.36s5,21,17,22,85,0,104,0,24-6,34-13,71-42,71-42"/><path class="cls-2" d="M153.24,131.8s-.66,18.56,23.34,18.56,50,1,51-9,12-11,12-11Z"/><path class="cls-2" d="M170.11,143.37l55.11,144.49s4,2.5,17.36,2.5c22,0,22.81-6.6,22.81-6.6l-55-146.14Z"/><path class="cls-2" d="M370.58,66.36c-9-10-31-30.29-120-32.55s-106-13.55-154-22.59-86.51-18-94-3.86c-9,16.94,6,41,38,69,38.33,33.54,65,41,107,36.52s26-11.29,84-26,82-6.45,114,1.46S389.34,87.2,370.58,66.36ZM151.16,44.92l-7.35.86c-4.92.57-9.9,1-14.92,1.22a153.74,153.74,0,0,1-30.07-1.83,130.4,130.4,0,0,1-29.23-7.9,90.82,90.82,0,0,1-13.55-7,60.3,60.3,0,0,1-6.16-4.5,31.66,31.66,0,0,1-5.3-5.43,55.24,55.24,0,0,0,6.62,3.31c2.24,1,4.52,1.85,6.79,2.68,4.57,1.63,9.21,3,13.85,4.24,9.34,2.41,18.81,4.22,28.36,5.69s19.19,2.71,28.89,3.64c4.86.49,9.75.88,14.71,1.43s10,1.25,14.78,3C156.06,44.45,153.61,44.68,151.16,44.92Z"/></g></g></svg>